HIERARCHY
ROOT Character1_Hips
{
  OFFSET 0.00186996 15.1792 0.000213289
  CHANNELS 6 Xposition Yposition Zposition Zrotation Xrotation Yrotation
  JOINT Character1_LeftUpLeg
  {
    OFFSET 1.33984 -0.942852 0
    CHANNELS 6 Xposition Yposition Zposition Zrotation Xrotation Yrotation
    JOINT Character1_LeftLeg
    {
      OFFSET 1.03111 -5.48942 0.514163
      CHANNELS 6 Xposition Yposition Zposition Zrotation Xrotation Yrotation
      JOINT Character1_LeftFoot
      {
        OFFSET 0.584472 -7.37543 -1.61389
        CHANNELS 6 Xposition Yposition Zposition Zrotation Xrotation Yrotation
        JOINT Character1_LeftToeBase
        {
          OFFSET 0.308451 -0.815752 3.43202
          CHANNELS 6 Xposition Yposition Zposition Zrotation Xrotation Yrotation
          End Site
          {
            OFFSET 0 0 0
          }
        }
      }
    }
  }
  JOINT Character1_RightUpLeg
  {
    OFFSET -1.33984 -0.942851 0
    CHANNELS 6 Xposition Yposition Zposition Zrotation Xrotation Yrotation
    JOINT Character1_RightLeg
    {
      OFFSET -1.03111 -5.48941 0.514162
      CHANNELS 6 Xposition Yposition Zposition Zrotation Xrotation Yrotation
      JOINT Character1_RightFoot
      {
        OFFSET -0.584472 -7.37542 -1.61389
        CHANNELS 6 Xposition Yposition Zposition Zrotation Xrotation Yrotation
        JOINT Character1_RightToeBase
        {
          OFFSET -0.308452 -0.815752 3.43202
          CHANNELS 6 Xposition Yposition Zposition Zrotation Xrotation Yrotation
          End Site
          {
            OFFSET 0 0 0
          }
        }
      }
    }
  }
  JOINT Character1_Spine
  {
    OFFSET 0 1.05262 0
    CHANNELS 6 Xposition Yposition Zposition Zrotation Xrotation Yrotation
    JOINT Character1_Spine1
    {
      OFFSET 0 2.01813 0
      CHANNELS 6 Xposition Yposition Zposition Zrotation Xrotation Yrotation
      JOINT Character1_Spine2
      {
        OFFSET 0 2.01813 0
        CHANNELS 6 Xposition Yposition Zposition Zrotation Xrotation Yrotation
        JOINT Character1_LeftShoulder
        {
          OFFSET 1.05262 2.25701 0
          CHANNELS 6 Xposition Yposition Zposition Zrotation Xrotation Yrotation
          JOINT Character1_LeftArm
          {
            OFFSET 1.59242 -0.163556 -0.172858
            CHANNELS 6 Xposition Yposition Zposition Zrotation Xrotation Yrotation
            JOINT Character1_LeftForeArm
            {
              OFFSET 4.24537 -1.87801 -0.325368
              CHANNELS 6 Xposition Yposition Zposition Zrotation Xrotation Yrotation
              JOINT Character1_LeftHand
              {
                OFFSET 2.98616 -1.30581 0.326132
                CHANNELS 6 Xposition Yposition Zposition Zrotation Xrotation Yrotation
                JOINT Character1_LeftHandThumb1
                {
                  OFFSET 0.707167 -0.296377 0.777353
                  CHANNELS 6 Xposition Yposition Zposition Zrotation Xrotation Yrotation
                  JOINT Character1_LeftHandThumb2
                  {
                    OFFSET 0.248522 -0.159515 0.331579
                    CHANNELS 6 Xposition Yposition Zposition Zrotation Xrotation Yrotation
                    JOINT Character1_LeftHandThumb3
                    {
                      OFFSET 0.259195 -0.254061 0.227961
                      CHANNELS 6 Xposition Yposition Zposition Zrotation Xrotation Yrotation
                      JOINT Character1_LeftHandThumb4
                      {
                        OFFSET 0.226667 -0.258213 0.206783
                        CHANNELS 6 Xposition Yposition Zposition Zrotation Xrotation Yrotation
                        End Site
                        {
                          OFFSET 0 0 0
                        }
                      }
                    }
                  }
                }
                JOINT Character1_LeftHandIndex1
                {
                  OFFSET 1.48444 -0.354188 0.611987
                  CHANNELS 6 Xposition Yposition Zposition Zrotation Xrotation Yrotation
                  JOINT Character1_LeftHandIndex2
                  {
                    OFFSET 0.504725 -0.451988 0.0493911
                    CHANNELS 6 Xposition Yposition Zposition Zrotation Xrotation Yrotation
                    JOINT Character1_LeftHandIndex3
                    {
                      OFFSET 0.296443 -0.265512 0.0299126
                      CHANNELS 6 Xposition Yposition Zposition Zrotation Xrotation Yrotation
                      JOINT Character1_LeftHandIndex4
                      {
                        OFFSET 0.19765 -0.217277 0.0208596
                        CHANNELS 6 Xposition Yposition Zposition Zrotation Xrotation Yrotation
                        End Site
                        {
                          OFFSET 0 0 0
                        }
                      }
                    }
                  }
                }
                JOINT Character1_LeftHandMiddle1
                {
                  OFFSET 1.48537 -0.317031 0.212679
                  CHANNELS 6 Xposition Yposition Zposition Zrotation Xrotation Yrotation
                  JOINT Character1_LeftHandMiddle2
                  {
                    OFFSET 0.672059 -0.620935 0.0176345
                    CHANNELS 6 Xposition Yposition Zposition Zrotation Xrotation Yrotation
                    JOINT Character1_LeftHandMiddle3
                    {
                      OFFSET 0.264033 -0.32112 0.00884251
                      CHANNELS 6 Xposition Yposition Zposition Zrotation Xrotation Yrotation
                      JOINT Character1_LeftHandMiddle4
                      {
                        OFFSET 0.180854 -0.241264 0.00658412
                        CHANNELS 6 Xposition Yposition Zposition Zrotation Xrotation Yrotation
                        End Site
                        {
                          OFFSET 0 0 0
                        }
                      }
                    }
                  }
                }
                JOINT Character1_LeftHandRing1
                {
                  OFFSET 1.48599 -0.345214 -0.172738
                  CHANNELS 6 Xposition Yposition Zposition Zrotation Xrotation Yrotation
                  JOINT Character1_LeftHandRing2
                  {
                    OFFSET 0.522196 -0.611354 0.0123873
                    CHANNELS 6 Xposition Yposition Zposition Zrotation Xrotation Yrotation
                    JOINT Character1_LeftHandRing3
                    {
                      OFFSET 0.273491 -0.359548 0.00739135
                      CHANNELS 6 Xposition Yposition Zposition Zrotation Xrotation Yrotation
                      JOINT Character1_LeftHandRing4
                      {
                        OFFSET 0.175075 -0.230164 0.00473127
                        CHANNELS 6 Xposition Yposition Zposition Zrotation Xrotation Yrotation
                        End Site
                        {
                          OFFSET 0 0 0
                        }
                      }
                    }
                  }
                }
                JOINT Character1_LeftHandPinky1
                {
                  OFFSET 1.45006 -0.450851 -0.482263
                  CHANNELS 6 Xposition Yposition Zposition Zrotation Xrotation Yrotation
                  JOINT Character1_LeftHandPinky2
                  {
                    OFFSET 0.289756 -0.353117 -0.0298237
                    CHANNELS 6 Xposition Yposition Zposition Zrotation Xrotation Yrotation
                    JOINT Character1_LeftHandPinky3
                    {
                      OFFSET 0.271226 -0.36969 -0.0280322
                      CHANNELS 6 Xposition Yposition Zposition Zrotation Xrotation Yrotation
                      JOINT Character1_LeftHandPinky4
                      {
                        OFFSET 0.192972 -0.263027 -0.0199441
                        CHANNELS 6 Xposition Yposition Zposition Zrotation Xrotation Yrotation
                        End Site
                        {
                          OFFSET 0 0 0
                        }
                      }
                    }
                  }
                }
              }
            }
          }
        }
        JOINT Character1_RightShoulder
        {
          OFFSET -1.05263 2.257 0
          CHANNELS 6 Xposition Yposition Zposition Zrotation Xrotation Yrotation
          JOINT Character1_RightArm
          {
            OFFSET -1.59242 -0.16355 -0.172859
            CHANNELS 6 Xposition Yposition Zposition Zrotation Xrotation Yrotation
            JOINT Character1_RightForeArm
            {
              OFFSET -4.24536 -1.87802 -0.325405
              CHANNELS 6 Xposition Yposition Zposition Zrotation Xrotation Yrotation
              JOINT Character1_RightHand
              {
                OFFSET -2.98615 -1.30581 0.326124
                CHANNELS 6 Xposition Yposition Zposition Zrotation Xrotation Yrotation
                JOINT Character1_RightHandThumb1
                {
                  OFFSET -0.707167 -0.296375 0.777354
                  CHANNELS 6 Xposition Yposition Zposition Zrotation Xrotation Yrotation
                  JOINT Character1_RightHandThumb2
                  {
                    OFFSET -0.248522 -0.159517 0.33158
                    CHANNELS 6 Xposition Yposition Zposition Zrotation Xrotation Yrotation
                    JOINT Character1_RightHandThumb3
                    {
                      OFFSET -0.259195 -0.254063 0.227961
                      CHANNELS 6 Xposition Yposition Zposition Zrotation Xrotation Yrotation
                      JOINT Character1_RightHandThumb4
                      {
                        OFFSET -0.226667 -0.258211 0.206783
                        CHANNELS 6 Xposition Yposition Zposition Zrotation Xrotation Yrotation
                        End Site
                        {
                          OFFSET 0 0 0
                        }
                      }
                    }
                  }
                }
                JOINT Character1_RightHandIndex1
                {
                  OFFSET -1.48444 -0.354191 0.611987
                  CHANNELS 6 Xposition Yposition Zposition Zrotation Xrotation Yrotation
                  JOINT Character1_RightHandIndex2
                  {
                    OFFSET -0.504725 -0.451986 0.049391
                    CHANNELS 6 Xposition Yposition Zposition Zrotation Xrotation Yrotation
                    JOINT Character1_RightHandIndex3
                    {
                      OFFSET -0.296442 -0.265512 0.0299126
                      CHANNELS 6 Xposition Yposition Zposition Zrotation Xrotation Yrotation
                      JOINT Character1_RightHandIndex4
                      {
                        OFFSET -0.197651 -0.21728 0.0208598
                        CHANNELS 6 Xposition Yposition Zposition Zrotation Xrotation Yrotation
                        End Site
                        {
                          OFFSET 0 0 0
                        }
                      }
                    }
                  }
                }
                JOINT Character1_RightHandMiddle1
                {
                  OFFSET -1.48537 -0.31703 0.212679
                  CHANNELS 6 Xposition Yposition Zposition Zrotation Xrotation Yrotation
                  JOINT Character1_RightHandMiddle2
                  {
                    OFFSET -0.672061 -0.620938 0.0176345
                    CHANNELS 6 Xposition Yposition Zposition Zrotation Xrotation Yrotation
                    JOINT Character1_RightHandMiddle3
                    {
                      OFFSET -0.264031 -0.321119 0.00884259
                      CHANNELS 6 Xposition Yposition Zposition Zrotation Xrotation Yrotation
                      JOINT Character1_RightHandMiddle4
                      {
                        OFFSET -0.180854 -0.241264 0.00658409
                        CHANNELS 6 Xposition Yposition Zposition Zrotation Xrotation Yrotation
                        End Site
                        {
                          OFFSET 0 0 0
                        }
                      }
                    }
                  }
                }
                JOINT Character1_RightHandRing1
                {
                  OFFSET -1.48599 -0.345215 -0.172738
                  CHANNELS 6 Xposition Yposition Zposition Zrotation Xrotation Yrotation
                  JOINT Character1_RightHandRing2
                  {
                    OFFSET -0.522197 -0.611354 0.0123875
                    CHANNELS 6 Xposition Yposition Zposition Zrotation Xrotation Yrotation
                    JOINT Character1_RightHandRing3
                    {
                      OFFSET -0.273489 -0.359549 0.00739124
                      CHANNELS 6 Xposition Yposition Zposition Zrotation Xrotation Yrotation
                      JOINT Character1_RightHandRing4
                      {
                        OFFSET -0.175076 -0.230165 0.00473138
                        CHANNELS 6 Xposition Yposition Zposition Zrotation Xrotation Yrotation
                        End Site
                        {
                          OFFSET 0 0 0
                        }
                      }
                    }
                  }
                }
                JOINT Character1_RightHandPinky1
                {
                  OFFSET -1.45006 -0.450851 -0.482263
                  CHANNELS 6 Xposition Yposition Zposition Zrotation Xrotation Yrotation
                  JOINT Character1_RightHandPinky2
                  {
                    OFFSET -0.289757 -0.35312 -0.0298238
                    CHANNELS 6 Xposition Yposition Zposition Zrotation Xrotation Yrotation
                    JOINT Character1_RightHandPinky3
                    {
                      OFFSET -0.271225 -0.36969 -0.028032
                      CHANNELS 6 Xposition Yposition Zposition Zrotation Xrotation Yrotation
                      JOINT Character1_RightHandPinky4
                      {
                        OFFSET -0.192971 -0.263025 -0.0199442
                        CHANNELS 6 Xposition Yposition Zposition Zrotation Xrotation Yrotation
                        End Site
                        {
                          OFFSET 0 0 0
                        }
                      }
                    }
                  }
                }
              }
            }
          }
        }
        JOINT Character1_Neck
        {
          OFFSET 0 2.01813 0
          CHANNELS 6 Xposition Yposition Zposition Zrotation Xrotation Yrotation
          JOINT Character1_Head
          {
            OFFSET 0 3.0075 0
            CHANNELS 6 Xposition Yposition Zposition Zrotation Xrotation Yrotation
            End Site
            {
              OFFSET 0 0 0
            }
          }
        }
      }
    }
  }
}
MOTION
Frames:	2
Frame Time:	0.0166667
0.00643909 15.1791 0.00020817 -0.0954903 0.0128496 -0.00102624 1.33984 -0.942849 3.10338e-010 -0.119521 6.84152 0.874222 1.03111 -5.48941 0.514162 0.00620028 -12.0192 -1.27869 0.584472 -7.37543 -1.61389 -0.0106123 5.16326 0.408219 0.308452 -0.815752 3.43202 2.43379e-014 -3.15041e-007 -4.04209e-015 -1.33984 -0.942849 4.74921e-011 0.270442 7.50267 -0.967889 -1.03111 -5.48942 0.514163 0.0451413 -13.1759 1.4255 -0.584472 -7.37543 -1.61389 0.0477077 5.65898 -0.456686 -0.308451 -0.815751 3.43202 3.73427e-015 -4.46185e-007 1.27961e-015 -6.20456e-008 1.05262 -1.02339e-009 -0.340558 0.0383525 0.00113962 5.43527e-009 2.01813 -7.58444e-008 0.00786823 -2.4549e-009 1.30276e-011 -2.55456e-009 2.01813 -7.76683e-008 0.00786835 -2.45509e-009 -1.5241e-011 1.05263 2.25701 6.75831e-008 -0.557037 -0.0662851 -0.0598338 1.59242 -0.163555 -0.172858 -49.2466 10.9338 -4.88605 4.24537 -1.878 -0.325368 -1.50302 -8.61841 -3.58891 2.98616 -1.30581 0.326133 -0.210778 -2.2511 0.980862 0.707167 -0.296377 0.777354 -1.43896e-005 2.37416e-006 -4.11763e-008 0.248522 -0.159515 0.331579 1.50069e-005 2.11854e-006 1.31068e-006 0.259195 -0.254061 0.227961 5.80546e-006 6.54656e-006 5.64003e-007 0.226666 -0.258213 0.206783 -2.94263e-005 -3.20752e-006 -6.5218e-006 1.48444 -0.354189 0.611987 -1.43896e-005 2.37416e-006 -4.11763e-008 0.504725 -0.451988 0.0493911 1.50069e-005 2.11854e-006 1.31068e-006 0.296442 -0.265512 0.0299126 5.80546e-006 6.54656e-006 5.64003e-007 0.197652 -0.217278 0.0208596 -2.94263e-005 -3.20752e-006 -6.5218e-006 1.48537 -0.317032 0.212679 -1.43896e-005 2.37416e-006 -4.11763e-008 0.67206 -0.620935 0.0176344 1.50069e-005 2.11854e-006 1.31068e-006 0.264033 -0.32112 0.00884251 5.80546e-006 6.54656e-006 5.64003e-007 0.180854 -0.241264 0.00658417 -2.94263e-005 -3.20752e-006 -6.5218e-006 1.48599 -0.345214 -0.172738 -1.43896e-005 2.37416e-006 -4.11763e-008 0.522198 -0.611355 0.0123875 1.50069e-005 2.11854e-006 1.31068e-006 0.273491 -0.359549 0.00739135 5.80546e-006 6.54656e-006 5.64003e-007 0.175076 -0.230164 0.00473115 -2.94263e-005 -3.20752e-006 -6.5218e-006 1.45006 -0.450851 -0.482263 -1.43896e-005 2.37416e-006 -4.11763e-008 0.289756 -0.353117 -0.0298238 1.50069e-005 2.11854e-006 1.31068e-006 0.271225 -0.36969 -0.0280323 5.80546e-006 6.54656e-006 5.64003e-007 0.192972 -0.263028 -0.019944 -2.94263e-005 -3.20752e-006 -6.5218e-006 -1.05263 2.25701 1.29747e-007 -5.33593e-008 -2.45509e-009 -2.21346e-012 -1.59242 -0.163551 -0.172859 51.1232 11.3977 0.709779 -4.24536 -1.87802 -0.325403 5.8553 -12.7846 11.8445 -2.98615 -1.30581 0.326125 -0.258861 2.00596 0.886087 -0.707168 -0.296375 0.777353 1.16011e-005 -1.2994e-005 -2.20369e-005 -0.248522 -0.159518 0.331579 -1.42184e-005 -7.65166e-006 4.14596e-006 -0.259195 -0.254063 0.227961 -3.33342e-005 -9.73299e-006 6.08973e-006 -0.226668 -0.258211 0.206783 -1.41276e-005 -3.94972e-006 8.8437e-007 -1.48444 -0.354191 0.611987 1.16011e-005 -1.2994e-005 -2.20369e-005 -0.504725 -0.451986 0.049391 -1.42184e-005 -7.65166e-006 4.14596e-006 -0.296442 -0.265513 0.0299125 -3.33342e-005 -9.73299e-006 6.08973e-006 -0.197651 -0.217279 0.0208598 -1.41276e-005 -3.94972e-006 8.8437e-007 -1.48537 -0.31703 0.212679 1.16011e-005 -1.2994e-005 -2.20369e-005 -0.67206 -0.620937 0.0176347 -1.42184e-005 -7.65166e-006 4.14596e-006 -0.264031 -0.321119 0.00884263 -3.33342e-005 -9.73299e-006 6.08973e-006 -0.180854 -0.241265 0.00658404 -1.41276e-005 -3.94972e-006 8.8437e-007 -1.48599 -0.345215 -0.172738 1.16011e-005 -1.2994e-005 -2.20369e-005 -0.522197 -0.611354 0.0123873 -1.42184e-005 -7.65166e-006 4.14596e-006 -0.273489 -0.359548 0.00739122 -3.33342e-005 -9.73299e-006 6.08973e-006 -0.175076 -0.230166 0.00473138 -1.41276e-005 -3.94972e-006 8.8437e-007 -1.45006 -0.450851 -0.482263 1.16011e-005 -1.2994e-005 -2.20369e-005 -0.289757 -0.353119 -0.0298238 -1.42184e-005 -7.65166e-006 4.14596e-006 -0.271225 -0.36969 -0.028032 -3.33342e-005 -9.73299e-006 6.08973e-006 -0.192972 -0.263026 -0.0199442 -1.41276e-005 -3.94972e-006 8.8437e-007 -9.85817e-009 2.01813 1.8512e-007 -0.00470792 0.0497141 -0.442151 2.25232e-009 3.0075 -2.77995e-007 -0.00162556 0.0468091 -0.442955 
0.0112185 15.179 0.000193057 -0.0773591 0.0128495 -0.00206531 1.33984 -0.94285 3.10289e-010 -0.160473 6.78163 0.871694 1.03111 -5.48941 0.514162 0.0107478 -11.9154 -1.26747 0.584472 -7.37543 -1.61389 0.0109618 5.11948 0.39917 0.308452 -0.815752 3.43202 2.43158e-014 -3.15041e-007 -4.02582e-015 -1.33984 -0.94285 4.7536e-011 0.229703 7.46792 -0.95858 -1.03111 -5.48942 0.514162 0.0424497 -13.1149 1.41857 -0.584473 -7.37543 -1.61389 0.0699606 5.6325 -0.460525 -0.308452 -0.815751 3.43202 3.6649e-015 -4.46158e-007 1.44192e-015 -6.2187e-008 1.05261 -1.02344e-009 -0.344903 0.0383525 0.00216668 5.43527e-009 2.01813 -7.58448e-008 0.0157363 -2.4549e-009 1.30276e-011 -2.55456e-009 2.01813 -7.76672e-008 0.0157362 -2.45509e-009 -1.52818e-011 1.05263 2.25701 6.75841e-008 -0.557037 -0.0662851 -0.0598338 1.59242 -0.163555 -0.172859 -49.2364 10.9314 -4.88067 4.24537 -1.878 -0.325367 -1.5104 -8.61563 -3.68536 2.98615 -1.30581 0.326133 -0.213573 -2.28424 0.995212 0.707167 -0.296377 0.777353 -9.56661e-006 2.37174e-006 -4.42363e-008 0.248521 -0.159515 0.331579 -4.7434e-006 2.11599e-006 1.30588e-006 0.259195 -0.254061 0.227961 5.44169e-006 6.55366e-006 5.70512e-007 0.226666 -0.258213 0.206783 -2.80121e-005 -3.20818e-006 -6.52163e-006 1.48444 -0.354189 0.611986 -9.56661e-006 2.37174e-006 -4.42363e-008 0.504724 -0.451988 0.0493911 -4.7434e-006 2.11599e-006 1.30588e-006 0.296442 -0.265513 0.0299126 5.44169e-006 6.55366e-006 5.70512e-007 0.197652 -0.217277 0.0208596 -2.80121e-005 -3.20818e-006 -6.52163e-006 1.48537 -0.317032 0.212679 -9.56661e-006 2.37174e-006 -4.42363e-008 0.672058 -0.620935 0.0176344 -4.7434e-006 2.11599e-006 1.30588e-006 0.264032 -0.32112 0.0088425 5.44169e-006 6.55366e-006 5.70512e-007 0.180854 -0.241264 0.00658417 -2.80121e-005 -3.20818e-006 -6.52163e-006 1.48599 -0.345214 -0.172738 -9.56661e-006 2.37174e-006 -4.42363e-008 0.522197 -0.611355 0.0123874 -4.7434e-006 2.11599e-006 1.30588e-006 0.273491 -0.359549 0.00739134 5.44169e-006 6.55366e-006 5.70512e-007 0.175076 -0.230164 0.00473115 -2.80121e-005 -3.20818e-006 -6.52163e-006 1.45006 -0.450851 -0.482263 -9.56661e-006 2.37174e-006 -4.42363e-008 0.289756 -0.353117 -0.0298237 -4.7434e-006 2.11599e-006 1.30588e-006 0.271225 -0.36969 -0.0280322 5.44169e-006 6.55366e-006 5.70512e-007 0.192971 -0.263027 -0.019944 -2.80121e-005 -3.20818e-006 -6.52163e-006 -1.05263 2.257 1.29747e-007 -5.33593e-008 -2.45509e-009 -2.25425e-012 -1.59242 -0.163551 -0.172859 51.1336 11.4 0.726328 -4.24536 -1.87802 -0.325403 5.83624 -12.8028 11.7411 -2.98615 -1.30581 0.326125 -0.263621 2.04274 0.902352 -0.707167 -0.296375 0.777353 1.14675e-005 -1.30022e-005 -2.20329e-005 -0.248521 -0.159517 0.331579 -1.36679e-005 -7.65443e-006 4.1457e-006 -0.259194 -0.254062 0.227961 -3.40272e-005 -9.72751e-006 6.08963e-006 -0.226668 -0.258211 0.206782 -1.3602e-005 -3.95521e-006 8.85832e-007 -1.48444 -0.354191 0.611986 1.14675e-005 -1.30022e-005 -2.20329e-005 -0.504724 -0.451986 0.049391 -1.36679e-005 -7.65443e-006 4.1457e-006 -0.296442 -0.265512 0.0299125 -3.40272e-005 -9.72751e-006 6.08963e-006 -0.197651 -0.217279 0.0208598 -1.3602e-005 -3.95521e-006 8.85832e-007 -1.48537 -0.317029 0.212679 1.14675e-005 -1.30022e-005 -2.20329e-005 -0.67206 -0.620937 0.0176347 -1.36679e-005 -7.65443e-006 4.1457e-006 -0.264032 -0.321119 0.00884263 -3.40272e-005 -9.72751e-006 6.08963e-006 -0.180854 -0.241264 0.00658404 -1.3602e-005 -3.95521e-006 8.85832e-007 -1.48599 -0.345214 -0.172737 1.14675e-005 -1.30022e-005 -2.20329e-005 -0.522198 -0.611355 0.0123873 -1.36679e-005 -7.65443e-006 4.1457e-006 -0.273489 -0.359548 0.00739121 -3.40272e-005 -9.72751e-006 6.08963e-006 -0.175077 -0.230165 0.00473138 -1.3602e-005 -3.95521e-006 8.85832e-007 -1.45006 -0.45085 -0.482263 1.14675e-005 -1.30022e-005 -2.20329e-005 -0.289757 -0.353118 -0.0298238 -1.36679e-005 -7.65443e-006 4.1457e-006 -0.271225 -0.36969 -0.028032 -3.40272e-005 -9.72751e-006 6.08963e-006 -0.192971 -0.263025 -0.0199442 -1.3602e-005 -3.95521e-006 8.85832e-007 -9.85816e-009 2.01813 1.85118e-007 -0.00903171 0.0994615 -0.884286 2.25232e-009 3.0075 -2.77993e-007 -0.00288892 0.093628 -0.885895 
